<svg width="100" height="100" viewBox="0 0 100 100" fill="none" xmlns="http://www.w3.org/2000/svg">
<path d="M78.5481 66.3959V34.1523C78.5481 31.9355 76.7344 30.1218 74.5176 30.1218H26.1522C23.9354 30.1218 22.1217 31.9355 22.1217 34.1523V36.6915C38.0823 41.8504 50.6976 54.4658 55.8566 70.4264H74.5176C76.7344 70.4264 78.5481 68.6127 78.5481 66.3959ZM86.609 14H14.0608C9.62729 14 5.99988 17.6274 5.99988 22.0609V30.1218C5.99988 32.3386 7.81358 34.1523 10.0303 34.1523C12.2471 34.1523 14.0608 32.3386 14.0608 30.1218V26.0914C14.0608 23.8746 15.8745 22.0609 18.0912 22.0609H82.5785C84.7953 22.0609 86.609 23.8746 86.609 26.0914V74.4568C86.609 76.6736 84.7953 78.4873 82.5785 78.4873H62.4262C60.2095 78.4873 58.3958 80.301 58.3958 82.5177C58.3958 84.7345 60.2095 86.5482 62.4262 86.5482H86.609C91.0425 86.5482 94.6699 82.9208 94.6699 78.4873V22.0609C94.6699 17.6274 91.0425 14 86.609 14ZM5.99988 74.4568V86.5482H18.0912C18.0912 84.0493 17.3255 81.7116 16.0357 79.777C13.8593 76.5527 10.1916 74.4568 5.99988 74.4568ZM10.5946 58.6977C8.17632 58.2947 5.99988 60.2696 5.99988 62.7282C5.99988 64.7031 7.45084 66.3556 9.42576 66.678C17.8091 68.129 24.4191 74.739 25.87 83.1223C26.1925 85.0972 27.8449 86.5482 29.8199 86.5482C32.2784 86.5482 34.2131 84.3717 33.8503 81.9535C31.9157 70.0233 22.4844 60.6324 10.5946 58.6977V58.6977ZM10.4334 42.4147C8.05541 42.2132 5.99988 44.0672 5.99988 46.4452C5.99988 48.5007 7.53145 50.2338 9.54668 50.4353C26.7567 52.0878 40.4603 65.7913 42.1128 83.0014C42.3143 85.0166 44.0474 86.5079 46.1029 86.5079C48.5212 86.5079 50.3752 84.412 50.1334 82.0341C47.9972 61.116 31.3514 44.5105 10.4334 42.4147V42.4147Z" fill="#F84343"/>
</svg>
